<svg version="1.1" xmlns="http://www.w3.org/2000/svg" xmlns:xlink="http://www.w3.org/1999/xlink" width="31.4137" height="31.82704" viewBox="0,0,31.4137,31.82704"><g transform="translate(-224.29315,-164.08648)"><g data-paper-data="{&quot;isPaintingLayer&quot;:true}" fill-rule="nonzero" stroke="none" stroke-linecap="butt" stroke-linejoin="miter" stroke-miterlimit="10" stroke-dasharray="" stroke-dashoffset="0" style="mix-blend-mode: normal"><path d="M224.29315,195.91352v-31.82704h31.4137v31.82704z" fill="#ffffff" stroke-width="0"/><path d="M244.61869,169.64003c0,0.83982 -0.65616,1.59366 -1.25,2.1875c-1.02492,1.02492 -3.03259,-0.31459 -4.33676,0.31794c-0.62645,0.30383 -3.12878,1.20946 -4.75308,1.25947c0.22239,1.26584 0.58112,2.61501 0.94358,3.9134c1.84382,-0.7719 7.42296,-0.71782 9.22977,-0.75975c0.37741,-0.00876 0.83662,-0.29942 1.1308,-0.06282c0.65442,0.52633 1.13197,1.29959 1.39755,2.09631c1.13016,3.39048 -6.24811,3.47573 -8.23462,3.51961c-0.73733,0.01629 -1.68708,0.27003 -2.47302,0.25782c-0.04638,1.40823 -0.41753,2.8667 -0.59938,4.17588c-0.02467,0.17761 -0.14538,0.43297 0,0.53795c1.53523,1.1086 6.55801,-1.93855 8.04174,0.53435c3.67813,6.13022 -10.1577,4.78068 -13.25816,3.2733c-2.91812,-1.41872 1.3649,-6.0545 0.69326,-8.72921c-1.058,-4.21334 -1.79483,-7.98275 -1.50334,-12.04759c0.05226,-0.72878 -0.09476,-3.66895 1.28721,-3.74572c0.39131,-0.25403 0.85815,-0.40157 1.35944,-0.40157c1.22776,0 2.2488,0.88503 2.45996,2.05193c0.03131,0.09689 0.05052,0.19936 0.05562,0.30831c0.00008,0.00161 0.00015,0.00323 0.00022,0.00484c3.91806,-1.89632 9.80922,-2.39548 9.80922,1.30805z" fill="#9966ff" stroke-width="0.5"/><path d="M252.03444,189.61688c0.99793,2.45484 -0.80514,4.12638 -3.37638,3.48357c-0.41922,-0.1048 -1.04323,-0.93615 -1.61362,-1.84443c-0.37498,-0.08023 -0.69153,-0.29936 -0.91548,-0.69127c-0.73685,-0.43488 -1.23117,-1.23698 -1.23117,-2.15454c0,-0.64422 0.24367,-1.23153 0.64387,-1.67478c0.28083,-2.79029 1.52843,-2.71695 2.85853,-1.68867c0.49303,-0.56817 0.95082,-1.18954 1.63716,-1.18954c3.79114,0 3.20152,2.66876 1.45452,4.80833c0.27786,0.43174 0.47128,0.77595 0.54257,0.95133z" fill="#66ffe4" stroke-width="0.5"/></g></g></svg>